<svg xmlns="http://www.w3.org/2000/svg" viewBox="0 0 99.12 60.72"><defs><style>.cls-1{opacity:0.95;}.cls-2{fill:#fff;}.cls-3{fill:#f69059;}</style></defs><g id="Layer_2" data-name="Layer 2"><g id="Layer_1-2" data-name="Layer 1"><g class="cls-1"><path class="cls-2" d="M69.56,59.74v.56c-2.58.72-8.72.3-11.72.3-7.38,0-10.32-2.82-12.48-9.54-1.26-4-1.68-12.12-7.32-12.12H36.36V49.2c0,7,.6,10.32,6.24,10.32V60H18v-.48c6,0,6-3.3,6-10.32V28.8c0-7.26,0-10.32-6-10.32V18H39.66c6.18,0,20.16.24,20.16,10.32,0,8.22-11.28,10.14-18.42,10.44v.12c11.76,0,15.25,3.61,17.52,9.84C61.71,56.38,65.22,59,69.56,59.74ZM36.36,38.46H38c6,0,8.58-3.06,8.58-10.14,0-5.58-2-9.84-8.46-9.84h-1.8Z"/><path class="cls-2" d="M61.5,50.88c0-4,2.7-6.6,6.3-6.6,2.94,0,5.7,2,6,5.94A5.34,5.34,0,0,0,71.28,55c0,2.88,1.68,5,4.74,5,4,0,4.74-4.08,4.74-7.38V28.8c0-7.26,0-10.32-6.6-10.32V18h25v.48c-6,0-6,3.06-6,10.32V44.46c0,9.84-4.68,16-17.1,16C71.58,60.48,61.5,58.5,61.5,50.88Z"/><path class="cls-2" d="M63.56,53.74v.56c-2.58.72-8.72.3-11.72.3-7.38,0-10.32-2.82-12.48-9.54-1.26-4-1.68-12.12-7.32-12.12H30.36V43.2c0,7,.6,10.32,6.24,10.32V54H12v-.48c6,0,6-3.3,6-10.32V22.8c0-7.26,0-10.32-6-10.32V12H33.66c6.18,0,20.16.24,20.16,10.32,0,8.22-11.28,10.14-18.42,10.44v.12c11.76,0,15.25,3.61,17.52,9.84C55.71,50.38,59.22,53,63.56,53.74ZM30.36,32.46H32c6,0,8.58-3.06,8.58-10.14,0-5.58-2-9.84-8.46-9.84h-1.8Z"/><path class="cls-2" d="M55.5,44.88c0-4,2.7-6.6,6.3-6.6,2.94,0,5.7,2,6,5.94A5.34,5.34,0,0,0,65.28,49c0,2.88,1.68,5,4.74,5,4,0,4.74-4.08,4.74-7.38V22.8c0-7.26,0-10.32-6.6-10.32V12h25v.48c-6,0-6,3.06-6,10.32V38.46c0,9.84-4.68,16-17.1,16C65.58,54.48,55.5,52.5,55.5,44.88Z"/><path class="cls-2" d="M63.56,53.74v.56c-2.58.72-8.72.3-11.72.3-7.38,0-10.32-2.82-12.48-9.54-1.26-4-1.68-12.12-7.32-12.12H30.36V43.2c0,7,.6,10.32,6.24,10.32V54H12v-.48c6,0,6-3.3,6-10.32V22.8c0-7.26,0-10.32-6-10.32V12H33.66c6.18,0,20.16.24,20.16,10.32,0,8.22-11.28,10.14-18.42,10.44v.12c11.76,0,15.25,3.61,17.52,9.84C55.71,50.38,59.22,53,63.56,53.74ZM30.36,32.46H32c6,0,8.58-3.06,8.58-10.14,0-5.58-2-9.84-8.46-9.84h-1.8Z"/><path class="cls-2" d="M55.5,44.88c0-4,2.7-6.6,6.3-6.6,2.94,0,5.7,2,6,5.94A5.34,5.34,0,0,0,65.28,49c0,2.88,1.68,5,4.74,5,4,0,4.74-4.08,4.74-7.38V22.8c0-7.26,0-10.32-6.6-10.32V12h25v.48c-6,0-6,3.06-6,10.32V38.46c0,9.84-4.68,16-17.1,16C65.58,54.48,55.5,52.5,55.5,44.88Z"/><path class="cls-2" d="M57.56,47.74v.56c-2.58.72-8.72.3-11.72.3-7.38,0-10.32-2.82-12.48-9.54-1.26-4-1.68-12.12-7.32-12.12H24.36V37.2c0,7,.6,10.32,6.24,10.32V48H6v-.48c6,0,6-3.3,6-10.32V16.8C12,9.54,12,6.48,6,6.48V6H27.66c6.18,0,20.16.24,20.16,10.32,0,8.22-11.28,10.14-18.42,10.44v.12c11.76,0,15.25,3.61,17.52,9.84C49.71,44.38,53.22,47,57.56,47.74ZM24.36,26.46H26c6,0,8.58-3.06,8.58-10.14,0-5.58-2-9.84-8.46-9.84h-1.8Z"/><path class="cls-2" d="M49.5,38.88c0-4,2.7-6.6,6.3-6.6,2.94,0,5.7,2,6,5.94A5.34,5.34,0,0,0,59.28,43c0,2.88,1.68,5,4.74,5,4,0,4.74-4.08,4.74-7.38V16.8c0-7.26,0-10.32-6.6-10.32V6h25v.48c-6,0-6,3.06-6,10.32V32.46c0,9.84-4.68,16-17.1,16C59.58,48.48,49.5,46.5,49.5,38.88Z"/></g><g class="cls-1"><path class="cls-2" d="M63.56,53.74v.56c-2.58.72-8.72.3-11.72.3-7.38,0-10.32-2.82-12.48-9.54-1.26-4-1.68-12.12-7.32-12.12H30.36V43.2c0,7,.6,10.32,6.24,10.32V54H12v-.48c6,0,6-3.3,6-10.32V22.8c0-7.26,0-10.32-6-10.32V12H33.66c6.18,0,20.16.24,20.16,10.32,0,8.22-11.28,10.14-18.42,10.44v.12c11.76,0,15.25,3.61,17.52,9.84C55.71,50.38,59.22,53,63.56,53.74ZM30.36,32.46H32c6,0,8.58-3.06,8.58-10.14,0-5.58-2-9.84-8.46-9.84h-1.8Z"/><path class="cls-2" d="M55.5,44.88c0-4,2.7-6.6,6.3-6.6,2.94,0,5.7,2,6,5.94A5.34,5.34,0,0,0,65.28,49c0,2.88,1.68,5,4.74,5,4,0,4.74-4.08,4.74-7.38V22.8c0-7.26,0-10.32-6.6-10.32V12h25v.48c-6,0-6,3.06-6,10.32V38.46c0,9.84-4.68,16-17.1,16C65.58,54.48,55.5,52.5,55.5,44.88Z"/><path class="cls-2" d="M57.56,47.74v.56c-2.58.72-8.72.3-11.72.3-7.38,0-10.32-2.82-12.48-9.54-1.26-4-1.68-12.12-7.32-12.12H24.36V37.2c0,7,.6,10.32,6.24,10.32V48H6v-.48c6,0,6-3.3,6-10.32V16.8C12,9.54,12,6.48,6,6.48V6H27.66c6.18,0,20.16.24,20.16,10.32,0,8.22-11.28,10.14-18.42,10.44v.12c11.76,0,15.25,3.61,17.52,9.84C49.71,44.38,53.22,47,57.56,47.74ZM24.36,26.46H26c6,0,8.58-3.06,8.58-10.14,0-5.58-2-9.84-8.46-9.84h-1.8Z"/><path class="cls-2" d="M49.5,38.88c0-4,2.7-6.6,6.3-6.6,2.94,0,5.7,2,6,5.94A5.34,5.34,0,0,0,59.28,43c0,2.88,1.68,5,4.74,5,4,0,4.74-4.08,4.74-7.38V16.8c0-7.26,0-10.32-6.6-10.32V6h25v.48c-6,0-6,3.06-6,10.32V32.46c0,9.84-4.68,16-17.1,16C59.58,48.48,49.5,46.5,49.5,38.88Z"/></g><g class="cls-1"><path class="cls-2" d="M57.56,47.74v.56c-2.58.72-8.72.3-11.72.3-7.38,0-10.32-2.82-12.48-9.54-1.26-4-1.68-12.12-7.32-12.12H24.36V37.2c0,7,.6,10.32,6.24,10.32V48H6v-.48c6,0,6-3.3,6-10.32V16.8C12,9.54,12,6.48,6,6.48V6H27.66c6.18,0,20.16.24,20.16,10.32,0,8.22-11.28,10.14-18.42,10.44v.12c11.76,0,15.25,3.61,17.52,9.84C49.71,44.38,53.22,47,57.56,47.74ZM24.36,26.46H26c6,0,8.58-3.06,8.58-10.14,0-5.58-2-9.84-8.46-9.84h-1.8Z"/><path class="cls-2" d="M49.5,38.88c0-4,2.7-6.6,6.3-6.6,2.94,0,5.7,2,6,5.94A5.34,5.34,0,0,0,59.28,43c0,2.88,1.68,5,4.74,5,4,0,4.74-4.08,4.74-7.38V16.8c0-7.26,0-10.32-6.6-10.32V6h25v.48c-6,0-6,3.06-6,10.32V32.46c0,9.84-4.68,16-17.1,16C59.58,48.48,49.5,46.5,49.5,38.88Z"/></g><path class="cls-3" d="M51.56,41.74v.56c-2.58.72-8.72.3-11.72.3-7.38,0-10.32-2.82-12.48-9.54-1.26-4-1.68-12.12-7.32-12.12H18.36V31.2c0,7,.6,10.32,6.24,10.32V42H0v-.48c6,0,6-3.3,6-10.32V10.8C6,3.54,6,.48,0,.48V0H21.66c6.18,0,20.16.24,20.16,10.32,0,8.22-11.28,10.14-18.42,10.44v.12c11.76,0,15.25,3.61,17.52,9.84C43.71,38.38,47.22,41,51.56,41.74ZM18.36,20.46H20c6,0,8.58-3.06,8.58-10.14,0-5.58-2-9.84-8.46-9.84h-1.8Z"/><path class="cls-3" d="M43.5,32.88c0-4,2.7-6.6,6.3-6.6,2.94,0,5.7,2,6,5.94A5.34,5.34,0,0,0,53.28,37c0,2.88,1.68,5,4.74,5,4,0,4.74-4.08,4.74-7.38V10.8c0-7.26,0-10.32-6.6-10.32V0h25V.48c-6,0-6,3.06-6,10.32V26.46c0,9.84-4.68,16-17.1,16C53.58,42.48,43.5,40.5,43.5,32.88Z"/></g></g></svg>